<svg xmlns="http://www.w3.org/2000/svg" version="1.1" viewBox="-5.0 -10.0 110.0 135.0" fill="#14390e">
    <path
        d="m85 59.168c1.3789 0 2.5 1.1172 2.5 2.5v1.9648c0 7.1523-0.65234 10.523-2.5234 14.02-1.6836 3.1523-4.1719 5.6406-7.3242 7.3242-3.4961 1.8711-6.8672 2.5234-14.02 2.5234h-1.9648c-1.3828 0-2.5-1.1211-2.5-2.5s1.1172-2.5 2.5-2.5h1.9648c6.3984 0 8.9883-0.5 11.66-1.9297 2.2812-1.2188 4.0586-2.9961 5.2773-5.2773 1.4297-2.6719 1.9297-5.2617 1.9297-11.66v-1.9648c0-1.3828 1.1211-2.5 2.5-2.5zm-70 0c1.3789 0 2.5 1.1172 2.5 2.5v1.9648c0 6.3984 0.5 8.9883 1.9297 11.66 1.2188 2.2812 2.9961 4.0586 5.2773 5.2773 2.6719 1.4297 5.2617 1.9297 11.66 1.9297h1.9648c1.3828 0 2.5 1.1211 2.5 2.5s-1.1172 2.5-2.5 2.5h-1.9648c-7.1523 0-10.523-0.65234-14.02-2.5234-3.1523-1.6836-5.6406-4.1719-7.3242-7.3242-1.8711-3.4961-2.5234-6.8672-2.5234-14.02v-1.9648c0-1.3828 1.1211-2.5 2.5-2.5zm36.43-26.562c1.1523 0.42188 2.0625 1.332 2.4844 2.4844l0.88672 2.4297c1.3047 3.5664 4.1133 6.375 7.6797 7.6797l2.4297 0.88672c2.1641 0.79297 3.2734 3.1836 2.4844 5.3438-0.42188 1.1523-1.332 2.0625-2.4844 2.4844l-2.4297 0.88672c-3.5664 1.3047-6.375 4.1133-7.6797 7.6797l-0.88672 2.4297c-0.79297 2.1641-3.1836 3.2734-5.3438 2.4844-1.1523-0.42188-2.0625-1.332-2.4844-2.4844l-0.88672-2.4297c-1.3047-3.5664-4.1133-6.375-7.6797-7.6797l-2.4297-0.88672c-2.1641-0.79297-3.2734-3.1836-2.4844-5.3438 0.42188-1.1523 1.332-2.0625 2.4844-2.4844l2.4297-0.88672c3.5664-1.3047 6.375-4.1133 7.6797-7.6797l0.88672-2.4297c0.79297-2.1641 3.1836-3.2734 5.3438-2.4844zm-1.4297 6.3359-0.10547 0.29688c-1.7422 4.7656-5.4219 8.5547-10.113 10.445l-0.54297 0.21094-0.29297 0.10547 0.29297 0.10547c4.7656 1.7422 8.5547 5.4219 10.445 10.113l0.21094 0.54297 0.10547 0.29297 0.10547-0.29297c1.7422-4.7656 5.4219-8.5547 10.113-10.445l0.54297-0.21094 0.29297-0.10547-0.29297-0.10547c-4.9453-1.8086-8.8477-5.7109-10.656-10.656zm-11.668-26.441c1.3828 0 2.5 1.1211 2.5 2.5s-1.1172 2.5-2.5 2.5h-1.9648c-6.3984 0-8.9883 0.5-11.66 1.9297-2.2812 1.2188-4.0586 2.9961-5.2773 5.2773-1.3945 2.6094-1.9062 5.1406-1.9297 11.207v2.418c0 1.3828-1.1211 2.5-2.5 2.5s-2.5-1.1172-2.5-2.5v-1.9648c0-7.1523 0.65234-10.523 2.5234-14.02 1.6836-3.1523 4.1719-5.6406 7.3242-7.3242 3.4961-1.8711 6.8672-2.5234 14.02-2.5234zm25.301 0c7.1523 0 10.523 0.65234 14.02 2.5234 3.1523 1.6836 5.6406 4.1719 7.3242 7.3242 1.8711 3.4961 2.5234 6.8672 2.5234 14.02v1.9648c0 1.3828-1.1211 2.5-2.5 2.5s-2.5-1.1172-2.5-2.5v-1.9648c0-6.3984-0.5-8.9883-1.9297-11.66-1.2188-2.2812-2.9961-4.0586-5.2773-5.2773-2.6094-1.3945-5.1406-1.9062-11.207-1.9297h-2.418c-1.3828 0-2.5-1.1211-2.5-2.5s1.1172-2.5 2.5-2.5z" />
</svg>