<svg xmlns="http://www.w3.org/2000/svg" version="1.1" viewBox="-5.0 -10.0 110.0 135.0" fill="#14390e">
    <path
        d="m51.125 89.277c1.2969 1.5039 3.0156 2.8398 4.9062 3.7266 1.6797 0.78516 3.5 1.2188 5.2734 1.0938 4.9805-0.35156 9.7266-4.5156 13.805-10 6.3906-8.5859 11.039-20.301 12.625-26.219 2.4648-9.207 1.0508-16.371-2.4297-21.391-2.1211-3.0586-5.0117-5.3398-8.2617-6.8203-3.2617-1.4844-6.8906-2.1602-10.457-2-5.9766 0.27344-11.773 2.9141-15.387 8.0391-0.46484 0.66406-1.3828 0.82422-2.043 0.35547-0.14453-0.097656-0.26172-0.21875-0.35547-0.35547-3.6133-5.125-9.4102-7.7656-15.387-8.0391-3.5664-0.16016-7.1953 0.51562-10.457 2-3.2461 1.4805-6.1406 3.7617-8.2617 6.8203-3.4805 5.0195-4.8945 12.184-2.4297 21.391 1.5859 5.918 6.2344 17.633 12.625 26.219 4.0781 5.4844 8.8242 9.6484 13.805 10 1.7734 0.125 3.5938-0.30859 5.2734-1.0938 1.8984-0.89062 3.6172-2.2305 4.918-3.7383 0.52734-0.61328 1.4531-0.6875 2.0664-0.16016 0.0625 0.054687 0.11719 0.10938 0.17188 0.17188zm3.668 6.3789c-1.7773-0.83203-3.418-1.9844-4.793-3.3086-1.375 1.3242-3.0156 2.4766-4.793 3.3086-2.1133 0.98828-4.4219 1.5312-6.707 1.3711-5.9805-0.42188-11.422-5.0742-15.965-11.184-6.6406-8.9219-11.465-21.07-13.105-27.207-2.7188-10.137-1.0859-18.133 2.8555-23.816 2.4336-3.5117 5.7422-6.1289 9.4531-7.8164 3.6953-1.6836 7.7852-2.4453 11.805-2.2656 5.4688 0.25 10.82 2.25 14.879 6.0742-0.22266-4.0938-0.75391-7.3516-1.6211-9.9883-0.027343-0.0625-0.050781-0.12891-0.070312-0.19531l-0.003907-0.023437c-0.089843-0.25781-0.17969-0.50781-0.27344-0.75391-1.3086-3.4141-3.293-5.7148-6.0078-7.4961-0.67969-0.44141-0.87109-1.3555-0.42578-2.0312 0.44141-0.67969 1.3516-0.87109 2.0312-0.42578 1.7617 1.1562 3.2656 2.4961 4.5195 4.1328 0.046876-0.23047 0.10156-0.46094 0.16406-0.6875 0.61719-2.3047 1.8281-4.4805 3.6328-6.2852 1.8047-1.8047 3.9844-3.0195 6.2891-3.6367 2.375-0.63672 4.8906-0.63672 7.2695-0.003906 0.49609 0.12891 0.91016 0.51172 1.0547 1.043 0.63672 2.3828 0.63281 4.9023-0.003907 7.2812-0.61328 2.2969-1.8281 4.4727-3.6328 6.2812l-0.007812 0.007812c-1.8086 1.8086-3.9844 3.0195-6.2812 3.6328-1.5859 0.42578-3.2305 0.57031-4.8555 0.42969 0.60938 2.5156 0.99219 5.4531 1.1641 8.9258 4.082-3.9609 9.5234-6.0234 15.094-6.2812 4.0195-0.17969 8.1094 0.58594 11.805 2.2656 3.7109 1.6875 7.0195 4.3047 9.4531 7.8164 3.9414 5.6836 5.5742 13.68 2.8555 23.816-1.6406 6.1367-6.4648 18.285-13.105 27.207-4.543 6.1094-9.9844 10.762-15.965 11.184-2.2852 0.16016-4.5938-0.38281-6.707-1.3711zm-5.4141-76.637c1.6289 0.30469 3.3125 0.23828 4.918-0.19141 1.8203-0.48828 3.543-1.4453 4.9648-2.8711l0.007812-0.003906 0.019531-0.023437c1.4141-1.418 2.3633-3.1328 2.8516-4.9453 0.42969-1.6055 0.49219-3.2891 0.19141-4.918-1.6289-0.30078-3.3125-0.23438-4.918 0.19531-1.8164 0.48438-3.5352 1.4453-4.9648 2.875-1.4297 1.4297-2.3906 3.1484-2.8789 4.9648-0.42969 1.6055-0.49219 3.2891-0.19141 4.918" />
</svg>