<svg xmlns="http://www.w3.org/2000/svg" version="1.1" viewBox="-5.0 -10.0 110.0 135.0" fill="#14390e">
    <path
        d="m91.598 64.902-3.0234-5.3828c-0.003907-0.003906-0.007813-0.007812-0.011719-0.011719-0.054688-0.089843-0.125-0.16406-0.20703-0.22656-0.015625-0.011719-0.03125-0.023438-0.050781-0.035156-0.082032-0.050782-0.16797-0.09375-0.26563-0.11328-5.8516-1.0898-11.223-2.5547-15.984-4.3555-0.1875-10.629-2.8203-19.691-3.1211-20.688l-0.95312-7.5547c-0.007813-0.046875-0.023438-0.089844-0.039063-0.13281-0.027344-0.089844-0.066406-0.16797-0.12109-0.23828-0.015624-0.019531-0.023437-0.039062-0.039062-0.058593-0.042969-0.046875-0.09375-0.082031-0.14453-0.11719-0.019531-0.011719-0.039063-0.027343-0.058594-0.039062-0.054687-0.03125-0.11328-0.050781-0.17578-0.066407-0.011719-0.003906-0.019532-0.011718-0.03125-0.011718l-9.4023-2.0039c-0.21875-0.046876-0.44531 0.003906-0.625 0.13281s-0.29297 0.33203-0.31641 0.55469l-0.96094 9.625c-0.003906 0.03125 0.011719 0.0625 0.011719 0.097656 0 0.03125-0.011719 0.058594-0.007813 0.089844 0.007813 0.058593 0.57422 4.4414-1.2773 10.293-12.477-11.367-10.906-24.547-10.867-24.855 0.007813-0.039063 0.023438-0.078126 0.023438-0.12109 0-0.082032-0.011719-0.16016-0.035157-0.23047l-0.94531-9.4688c-0.023438-0.22266-0.13672-0.42188-0.31641-0.55469-0.17969-0.13281-0.40625-0.17969-0.625-0.13281l-9.4023 2.0039c-0.011719 0.003907-0.019531 0.007813-0.03125 0.011719-0.0625 0.015625-0.12109 0.035156-0.17578 0.066406-0.019531 0.011719-0.039063 0.027344-0.058594 0.039063-0.050781 0.035156-0.10156 0.070312-0.14453 0.11328-0.015625 0.019531-0.027344 0.042969-0.042969 0.0625-0.050781 0.070312-0.09375 0.14844-0.11719 0.23438-0.015626 0.042969-0.03125 0.085937-0.039063 0.13281l-0.95312 7.5547c-0.54297 1.8047-8.8789 30.59 4.1836 46.523-6.4414 3.3906-14.238 5.9805-23.285 7.6641-0.097657 0.019531-0.18359 0.058594-0.26563 0.10938-0.019531 0.011719-0.035156 0.023438-0.050781 0.035156-0.082031 0.0625-0.15625 0.13672-0.20703 0.22656-0.003906 0.003906-0.007812 0.007812-0.011719 0.015625l-3.0234 5.3828c-0.17188 0.30469-0.11719 0.6875 0.12891 0.93359 0.76172 0.76562 1.0273 1.4922 1.332 2.332 0.32422 0.88672 0.6875 1.8945 1.6953 2.8984 0.007812 0.007812 0.019531 0.011719 0.027344 0.019531 0.039062 0.035156 0.082031 0.058594 0.12891 0.085938 0.042968 0.027343 0.085937 0.054687 0.13281 0.074218 0.011719 0.003906 0.019532 0.015625 0.035156 0.019532 10.551 3.2539 19.77 4.8789 27.621 4.8789 10.188 0 18.074-2.7383 23.566-8.207 2.0391-2.0312 3.6445-4.3359 4.9062-6.8125 6.0391-0.68359 12.816-2.1719 20.156-4.4375 0.011719-0.003906 0.019532-0.011718 0.03125-0.015624 0.050782-0.019532 0.09375-0.046876 0.14063-0.074219 0.042968-0.027344 0.085937-0.050781 0.125-0.082031 0.007812-0.007813 0.019531-0.011719 0.027343-0.019532 1.0039-1.0078 1.3711-2.0117 1.6953-2.8984 0.30469-0.83984 0.57031-1.5703 1.332-2.332 0.23438-0.24609 0.28516-0.625 0.11328-0.93359zm-5.3008-4.5078-1.5156 1.5117-1.9688 1.9688c-1.1406 0.050781-5.582 0.17188-11.188-0.73047 0.28125-2.2422 0.41406-4.4883 0.42969-6.6875 4.3086 1.582 9.082 2.9062 14.242 3.9375zm-27.801-34.812 8.0078 1.707 0.78125 6.1875h-9.5703zm-4.2578 20.676c-0.53125 1.4062-1.1992 2.875-2.0547 4.3789-0.63672 1.1133-1.3633 2.1875-2.1367 3.2344-8.75-7.4648-12.73-18.688-11.82-33.406h4.0742c-0.21094 3.3398 0 15.273 11.938 25.793zm-11.945-27.355h-9.5742l0.78125-6.1875 8.0078-1.707zm-9.8672 1.5625h4.2461c-0.92188 15.223 3.2539 26.867 12.422 34.648-3.1719 3.9023-7.3438 7.3086-12.441 10.176-11.98-14.262-5.3555-40.723-4.2266-44.824zm4.25 46.602c0.11719-0.03125 0.23047-0.078125 0.32422-0.16406 0.007812-0.007813 0.011719-0.015625 0.015625-0.023438 6.2969-3.4844 10.613-7.4062 13.578-11.137 0.085938-0.046876 0.17188-0.10547 0.23828-0.1875 0.074219-0.089844 0.11719-0.19141 0.14453-0.30078 1.0352-1.3516 1.8984-2.6758 2.6094-3.9375 4.1758-7.3867 4.25-13.949 4.1094-16.281h4.0742c0.8125 13.094-2.2539 23.469-9.1211 30.852-10.574 11.367-27.059 12.594-33.652 12.594-0.85156 0-1.4766-0.023438-1.8164-0.039063l-3.4844-3.4766c9.6562-1.9219 17.148-4.7227 22.98-7.8984zm-26.637 12.688 2.2461-3.9922 3.5117 3.5078-3.7031 4.5938c-0.35938-0.52734-0.55078-1.0625-0.76562-1.6484-0.27734-0.76172-0.58203-1.6055-1.2891-2.4609zm51.922 1.6484c-9.1367 9.0977-25.461 10.195-48.516 3.2734l3.7617-4.6641c0.37109 0.015625 0.98047 0.035156 1.8008 0.035156 6.8008 0 23.805-1.2773 34.793-13.094 7.1523-7.6875 10.348-18.426 9.5312-31.914h4.2461c1.1797 4.293 8.2539 32.555-5.6172 46.363zm9.4531-16.715c4.0508 0.64844 7.4609 0.78906 9.5547 0.78906 0.82812 0 1.4492-0.019531 1.8281-0.039062l3.7578 4.6641c-6.4297 1.9297-12.402 3.2461-17.793 3.9258 1.2969-2.9688 2.1445-6.1367 2.6523-9.3398zm17.258 2.9492c-0.21484 0.58984-0.40625 1.1211-0.76562 1.6484l-3.7031-4.5938 3.5117-3.5078 2.2461 3.9922c-0.70703 0.85938-1.0117 1.7031-1.2891 2.4609z" />
</svg>