<svg xmlns="http://www.w3.org/2000/svg" version="1.1" viewBox="-5.0 -10.0 110.0 135.0" fill="#14390e">
    <g fill-rule="evenodd">
        <path
            d="m34.316 47.125c-4.9453-0.44531-9.8984-1.0938-14.863-1.9492-0.003906-0.11328-0.003906-0.22656-0.003906-0.33984 0-0.32422 0.011719-0.64844 0.039062-0.96875 0.49219-6.0586 5.5703-10.824 11.754-10.824 2.0117 0 3.9062 0.50391 5.5625 1.3945-0.050782 0.070312-0.097657 0.14062-0.14453 0.21094-1.2852 1.9102-2.1719 4.1055-2.5391 6.4766-0.125 0.80859-0.19141 1.6367-0.19141 2.4805 0 1.2109 0.13281 2.3867 0.39062 3.5234z" />
        <path
            d="m63.164 34.434c1.6562-0.89062 3.5508-1.3945 5.5625-1.3945 6.1289 0 11.172 4.6836 11.742 10.664 0.035156 0.37109 0.054688 0.75 0.054688 1.1328 0 0.13281-0.003907 0.26172-0.007813 0.39453-4.9453 0.85938-9.9023 1.5078-14.875 1.9453 0.26172-1.1484 0.39844-2.3438 0.39844-3.5703 0-0.89844-0.074218-1.7773-0.21484-2.6328-0.38281-2.3125-1.2578-4.457-2.5156-6.3242-0.046875-0.070313-0.097656-0.14063-0.14453-0.21094z" />
        <path
            d="m39.898 36.828c2.1836-3.2422 5.8867-5.375 10.086-5.375s7.9023 2.1328 10.086 5.375c0.94922 1.4102 1.6133 3.0352 1.9023 4.7812 0.10938 0.64844 0.16406 1.3164 0.16406 1.9961 0 1.3594-0.22266 2.6641-0.63281 3.8828-1.4062 0.089844-2.8086 0.16406-4.2148 0.21875-4.8555 0.19531-9.7227 0.18359-14.598-0.023437-1.4102-0.058594-2.8242-0.13672-4.2344-0.23047-0.40234-1.207-0.62109-2.5039-0.62109-3.8477 0-0.64062 0.050781-1.2695 0.14453-1.8828 0.27734-1.7891 0.94922-3.4531 1.9219-4.8945z" />
        <path
            d="m6.2461 46.445c29.527 7.0703 58.688 7.0859 87.473 0-14.578 15.363-6.1055 23.051-43.734 23.051-37.633 0-29.156-7.6797-43.738-23.051z" />
    </g>
</svg>