<svg xmlns="http://www.w3.org/2000/svg" version="1.1" viewBox="-5.0 -10.0 110.0 135.0" fill="#14390e">
    <g fill-rule="evenodd">
        <path
            d="m45.918 28.238c0 4.3281-3.5156 7.8438-7.8438 7.8438s-7.8438-3.5156-7.8438-7.8438 3.5156-7.8438 7.8438-7.8438 7.8438 3.5156 7.8438 7.8438zm-3.9062 0c0-2.1719-1.7656-3.9375-3.9375-3.9375s-3.9375 1.7656-3.9375 3.9375 1.7656 3.9375 3.9375 3.9375c2.1758 0 3.9375-1.7656 3.9375-3.9375z" />
        <path
            d="m55.922 77.555c-0.15625 1.0664-1.1484 1.8047-2.2148 1.6484-1.0664-0.15625-1.8047-1.1484-1.6484-2.2148 0.027344-0.1875 0.042968-0.37891 0.042968-0.57422 0-2.1719-1.7656-3.9375-3.9375-3.9375-2.1758 0-3.9375 1.7656-3.9375 3.9375 0 2.1719 1.7656 3.9375 3.9375 3.9375 0.39453 0 0.77734-0.058593 1.1367-0.16406 1.0312-0.30859 2.1211 0.27344 2.4336 1.3086 0.30859 1.0312-0.27344 2.1211-1.3086 2.4336-0.71484 0.21484-1.4727 0.33203-2.2617 0.33203-4.3281 0-7.8438-3.5156-7.8438-7.8438s3.5156-7.8438 7.8438-7.8438c4.3281 0 7.8438 3.5156 7.8438 7.8438 0 0.38672-0.027343 0.76562-0.082031 1.1406z" />
        <path
            d="m75.48 62.703c0 3.2617-2.6484 5.9102-5.9102 5.9102-3.2617 0-5.9102-2.6484-5.9102-5.9102s2.6484-5.9102 5.9102-5.9102c3.2617 0 5.9102 2.6484 5.9102 5.9102zm-3.9062 0c0-1.1055-0.89844-2.0078-2.0078-2.0078-1.1055 0-2.0078 0.89844-2.0078 2.0078 0 1.1055 0.89844 2.0078 2.0078 2.0078 1.1055 0 2.0078-0.89844 2.0078-2.0078z" />
        <path
            d="m30.617 53.941c0 3.2617-2.6484 5.9102-5.9102 5.9102s-5.9102-2.6484-5.9102-5.9102c0-3.2617 2.6484-5.9102 5.9102-5.9102s5.9102 2.6484 5.9102 5.9102zm-3.9062 0c0-1.1055-0.89844-2.0078-2.0078-2.0078-1.1055 0-2.0078 0.89844-2.0078 2.0078 0 1.1055 0.89844 2.0078 2.0078 2.0078 1.1055 0 2.0078-0.89844 2.0078-2.0078z" />
        <path
            d="m31.613 12.445c-0.96875 0.47266-2.1367 0.074219-2.6133-0.89453-0.47266-0.96875-0.074219-2.1367 0.89453-2.6133 6.0625-2.9727 12.883-4.6445 20.094-4.6445 0.90234 0 1.793 0.027343 2.6797 0.078125 0.57422 0.03125 1.1016 0.31641 1.4492 0.77344 0.34375 0.45703 0.47266 1.043 0.34375 1.6055-0.21875 0.97266-0.33203 1.9805-0.33203 3.0195 0 4.6836 2.3398 8.8203 5.918 11.301 0.78906 0.54688 1.0625 1.5859 0.64844 2.4492-0.86328 1.7969-1.3477 3.8164-1.3477 5.9453 0 7.5938 6.1562 13.75 13.75 13.75 0.9375 0 1.8555-0.09375 2.7422-0.27344 0.93359-0.1875 1.8672 0.32422 2.207 1.2148 1.9805 5.1602 6.9844 8.8203 12.84 8.8203 0.76953 0 1.5234-0.0625 2.2578-0.1875 0.60156-0.10156 1.2188 0.085938 1.6641 0.50391 0.44531 0.41797 0.66797 1.0234 0.60156 1.6289-2.4648 22.91-21.859 40.75-45.422 40.75-25.234 0-45.688-20.457-45.688-45.688 0-15.027 7.2578-28.363 18.457-36.691 0.86328-0.64453 2.0898-0.46094 2.7305 0.40234 0.64453 0.86328 0.46094 2.0898-0.40234 2.7305-10.246 7.6172-16.883 19.812-16.883 33.555 0 23.078 18.707 41.785 41.785 41.785 20.727 0 37.93-15.094 41.219-34.887-0.10547 0-0.21094 0.003906-0.32031 0.003906-6.957 0-12.973-4.0234-15.848-9.8672-0.63672 0.070313-1.2852 0.10547-1.9414 0.10547-9.75 0-17.656-7.9062-17.656-17.656 0-2.1641 0.39062-4.2422 1.1055-6.1562-3.8633-3.2383-6.3203-8.1016-6.3203-13.535 0-0.52734 0.023438-1.0508 0.070313-1.5703h-0.30469c-6.5938 0-12.828 1.5273-18.371 4.2461z" />
    </g>
</svg>