<svg xmlns="http://www.w3.org/2000/svg" version="1.1" viewBox="-5.0 -10.0 110.0 135.0" fill="#14390e">
    <path
        d="m50 95c17.18 0 31.148-13.98 31.148-31.148 0-12.32-3.4297-27.109-8.9414-38.602-6.2578-13.059-14.148-20.25-22.207-20.25s-15.949 7.2109-22.219 20.289c-5.5117 11.512-8.9414 26.281-8.9414 38.559 0.011718 17.172 13.98 31.152 31.16 31.152zm0-88.09c7.1797 0 14.648 6.9805 20.488 19.16 5.3984 11.25 8.75 25.719 8.75 37.77 0 16.121-13.121 29.238-29.238 29.238-16.121 0-29.238-13.109-29.238-29.227 0-25.102 13.77-56.941 29.238-56.941z" />
</svg>