<svg xmlns="http://www.w3.org/2000/svg" version="1.1" viewBox="-5.0 -10.0 110.0 135.0"
    fill="#14390e">
    <path
        d="m62.965 3.7031h-27.777c-1.0234 0-1.8516 0.82812-1.8516 1.8516v12.195l-12.422 12.422c-0.17187 0.17188-0.30469 0.375-0.39844 0.60156-0.09375 0.22656-0.14453 0.46484-0.14453 0.70703v62.965c0 1.0234 0.82812 1.8516 1.8516 1.8516h55.555c1.0234 0 1.8516-0.82812 1.8516-1.8516v-62.965c0-0.019531-0.011718-0.039063-0.011718-0.058594-0.003907-0.13672-0.046876-0.26172-0.078126-0.39453-0.027343-0.10547-0.035156-0.21094-0.082031-0.30469-0.042969-0.097656-0.11719-0.17578-0.17969-0.26562-0.074219-0.10938-0.14453-0.22656-0.24219-0.32031-0.015625-0.015625-0.019531-0.035157-0.035156-0.046875l-14.184-12.41-0.003906-12.125c0-1.0234-0.82812-1.8516-1.8516-1.8516zm-38.891 29.629h24.074v51.82l-24.074-0.027344zm27.777 0h24.074v51.852l-24.074-0.027344zm2.6172-3.7031 8.5742-8.5742 9.8008 8.5742h-18.379zm6.6406-12.965h-16.668v-3.7031c0-1.0234-0.82812-1.8516-1.8516-1.8516-1.0234 0-1.8516 0.82812-1.8516 1.8516v3.7031h-3.7031v-9.2578h24.074zm-25.16 3.7031h22.539l-9.2578 9.2578h-22.539zm-11.879 68.457 24.074 0.027343v3.7383h-24.074zm27.777 3.7656v-3.7344l24.074 0.027343v3.707zm-9.2578-53.703c0 1.0234-0.82812 1.8516-1.8516 1.8516h-11.109c-1.0234 0-1.8516-0.82812-1.8516-1.8516 0-1.0234 0.82812-1.8516 1.8516-1.8516h11.109c1.0234 0 1.8516 0.82812 1.8516 1.8516z" />
</svg>