<svg xmlns="http://www.w3.org/2000/svg" version="1.1" viewBox="-5.0 -10.0 110.0 135.0" fill="#14390e">
    <path
        d="m12.312 28.078-0.0625 0.03125c-0.21875 0.15234-0.375 0.35156-0.5 0.57422v0.007812c-0.09375 0.21484-0.15625 0.45703-0.15625 0.70703v41.203c0 0.53906 0.25 1.0391 0.71875 1.3242l36.844 23.137c0.03125 0.023438 0.0625 0.050781 0.125 0.070312v0.003907c0.25 0.125 0.5 0.18359 0.75 0.17578h0.03125c0.25-0.007812 0.5-0.078125 0.75-0.21875l0.03125-0.019531 36.844-23.148c0.46875-0.28516 0.71875-0.78516 0.71875-1.3242v-41.203c0-0.25-0.0625-0.49219-0.15625-0.70703v-0.007812c-0.125-0.22266-0.28125-0.42188-0.5-0.57422l-0.0625-0.03125-36.844-23.148c-0.53125-0.32031-1.1562-0.32031-1.6875 0zm36.125 25.336v37.512l-33.719-21.188v-37.512zm3.125 0v37.512l33.719-21.188v-37.512zm-35.469-24.016 33.906 21.309 33.906-21.309-33.906-21.301zm44.75 4.4336h-0.59375c-0.875 0-1.5625 0.69922-1.5625 1.5625s0.6875 1.5625 1.5625 1.5625h0.59375c0.875 0 1.5625-0.69922 1.5625-1.5625s-0.6875-1.5625-1.5625-1.5625zm7.5938-6.0664h-0.625c-0.84375 0-1.5625 0.69922-1.5625 1.5625s0.71875 1.5625 1.5625 1.5625h0.625c0.84375 0 1.5625-0.69922 1.5625-1.5625s-0.71875-1.5625-1.5625-1.5625zm-7.5938 0h-0.59375c-0.875 0-1.5625 0.69922-1.5625 1.5625s0.6875 1.5625 1.5625 1.5625h0.59375c0.875 0 1.5625-0.69922 1.5625-1.5625s-0.6875-1.5625-1.5625-1.5625z"
        fill-rule="evenodd" />
</svg>
