<svg xmlns="http://www.w3.org/2000/svg" data-name="Layer 1" viewBox="0 0 128 160" x="0px" y="0px" fill="#14390e">
    <path
        d="M114.64916,28.80368c1.04465-.41407,1.60119-1.33167,1.24308-2.04947a2.012,2.012,0,0,0-2.53987-.54981c-1.04465.41413-1.60119,1.33167-1.24308,2.04947A2.01194,2.01194,0,0,0,114.64916,28.80368Z" />
    <path
        d="M126.10466,20.61809c-3.98645-3.96569-12.40176-2.30379-13.34808-2.10057-18.067,3.8719-32.83795,19.21684-46.10887,35.22225-2.9122,3.51236-8.0608,9.27868-11.86854,13.048a2.001,2.001,0,0,0,2.81454,2.84506C61.9962,65.27339,67.261,59.2677,69.72593,56.29465c12.81095-15.45144,26.993-30.2473,43.86857-33.86322,2.752-.59109,7.82056-.83437,9.68976,1.02489.25391.25207,1.0264,1.02.57912,3.17138-.75686,3.63546-5.53045,5.66471-9.36748,7.29535-.42872.1827-.84475.35954-1.24027.53247-6.65841,2.90856-13.15959,5.79856-19.4928,9.182-15.32177,8.18736-25.7137,21.50793-35.045,34.44943q-1.50444,2.08543-2.99521,4.17966l-2.10065,2.9369C44.50822,97.89916,30.17,111.21607,13.01382,103.99339c5.47686-.248,12.02369-2.19779,18.42184-5.64621,13.49554-7.27287,21.25555-18.37466,17.66755-25.27431a9.05763,9.05763,0,0,0-5.61639-4.33207c-6.16133-1.89736-15.71338.00879-24.92657,4.974C6.98077,79.95506-.37052,89.01244.04109,95.81715c.02744.45365-.12948,2.66474.24419,3.28331,1.793,2.96718,4.93082,5.56994,9.32647,7.737A29.22119,29.22119,0,0,0,22.6268,110c11.79529-.001,23.61207-7.652,34.24424-22.46247l2.10651-2.94471q1.48833-2.084,2.98447-4.165c9.05693-12.56144,19.11779-25.47655,33.68563-33.26041,6.2043-3.315,12.62637-6.16983,19.20764-9.0442.38478-.168.78811-.339,1.20512-.51684,4.44643-1.88954,10.53646-4.47862,11.71912-10.16385C128.51392,23.90965,127.27462,21.78172,126.10466,20.61809ZM20.45681,77.23787c6.23652-3.36092,12.70548-5.22506,17.68708-5.22506a14.27323,14.27323,0,0,1,4.16712.553,5.12405,5.12405,0,0,1,3.24327,2.35362c2.16608,4.165-3.87805,13.36356-16.01515,19.90466-8.178,4.4073-16.75639,6.24115-21.8542,4.67207a5.12405,5.12405,0,0,1-3.24327-2.35362C2.27557,92.97753,8.31971,83.779,20.45681,77.23787Z" />
</svg>