<svg xmlns="http://www.w3.org/2000/svg" version="1.1" viewBox="-5.0 -10.0 110.0 135.0" fill="#14390e">
    <g>
        <path
            d="m75.5 14c-1.1484-1.2695-2.7891-2-4.5-2h-42.012c-1.7109 0-3.3516 0.73047-4.5 2-1.1484 1.2695-1.7109 2.9688-1.5391 4.6719l1.5391 15.32v0.019531c0 0.14062 0.019531 0.28125 0.050781 0.42188l4.5117 44.75c0.51172 5.0312 4.6992 8.8281 9.7617 8.8281h22.371c5.0586 0 9.2617-3.8008 9.7617-8.8281l4.5117-44.75c0.03125-0.14062 0.050781-0.26953 0.050781-0.42188v-0.019531l1.5391-15.309c0.17188-1.6992-0.39062-3.4102-1.5391-4.6719zm-48.039 2.6797c0.39844-0.44141 0.94141-0.67969 1.5312-0.67969h42.02c0.58984 0 1.1289 0.23828 1.5312 0.67969 0.39844 0.44141 0.57812 1 0.51953 1.5898l-1.3984 13.871c-2.4102 0.35156-3.9219 1.3594-5.1602 2.2109-1.3594 0.92188-2.4297 1.6484-4.75 1.6484-2.3203 0-3.3906-0.73047-4.75-1.6484-1.5391-1.0508-3.4492-2.3516-7-2.3516-3.5508 0-5.4609 1.3008-7 2.3516-1.3594 0.92188-2.4297 1.6484-4.75 1.6484-2.3203 0-3.3906-0.73047-4.75-1.6484-1.2383-0.85156-2.75-1.8516-5.1602-2.2109l-1.3984-13.879c-0.058593-0.58984 0.12891-1.1484 0.51953-1.5898zm39.512 62.09c-0.30078 2.9805-2.7891 5.2305-5.7812 5.2305h-22.371c-3 0-5.4805-2.25-5.7812-5.2305l-4.2695-42.461c0.94922 0.30078 1.6719 0.78125 2.4883 1.3398 1.5391 1.0391 3.4492 2.3516 7 2.3516 3.5508 0 5.4609-1.3008 7-2.3516 1.3594-0.92188 2.4297-1.6484 4.75-1.6484 2.3203 0 3.3906 0.73047 4.75 1.6484 1.5391 1.0508 3.4492 2.3516 7 2.3516 3.5508 0 5.4688-1.3008 7-2.3516 0.82031-0.55859 1.5391-1.0391 2.5-1.3398l-4.2695 42.461z" />
        <path
            d="m63.609 58.301c-0.87891-0.089843-1.6602 0.55078-1.75 1.4297l-1.5391 15.262c-0.12109 1.2305-1.1484 2.1602-2.3906 2.1602h-1.1992c-0.87891 0-1.6016 0.71875-1.6016 1.6016 0 0.87891 0.71875 1.6016 1.6016 1.6016h1.1992c2.8906 0 5.2812-2.1719 5.5703-5.0391l1.5391-15.262c0.089844-0.87891-0.55078-1.6602-1.4297-1.75z" />
    </g>
</svg>